<svg width="20" height="16" viewBox="0 0 20 16" xmlns="http://www.w3.org/2000/svg"><title>badge3 16x16</title><g fill="none" fill-rule="evenodd"><path d="M4.512 9.112c.854.716 1.446 2.186 1.329 3.29l.017-.157c-.118 1.108.684 1.92 1.791 1.823l-.158.013c1.11-.098 2.569.524 3.266 1.387l-.1-.123c.702.867 1.844.873 2.556.022l-.101.121c.716-.854 2.186-1.446 3.29-1.329l-.158-.017c1.11.118 1.921-.684 1.823-1.79l.014.158c-.098-1.111.524-2.57 1.387-3.267l-.123.1c.866-.702.873-1.844.022-2.556l.121.101c-.854-.716-1.446-2.185-1.329-3.29l-.017.158c.118-1.11-.684-1.92-1.791-1.823l.158-.014c-1.11.099-2.569-.523-3.266-1.386l.1.122c-.702-.866-1.844-.873-2.556-.022l.101-.121c-.716.854-2.186 1.446-3.29 1.33l.158.016c-1.11-.118-1.92.685-1.823 1.791l-.014-.158c.098 1.11-.524 2.569-1.387 3.267l.123-.1c-.866.702-.873 1.843-.022 2.555l-.121-.101z" fill="#0F88EB"/><path d="M.512 9.112c.854.716 1.446 2.186 1.329 3.29l.017-.157c-.118 1.108.684 1.92 1.791 1.823l-.158.013c1.11-.098 2.569.524 3.266 1.387l-.1-.123c.702.867 1.844.873 2.556.022l-.101.121c.716-.854 2.186-1.446 3.29-1.329l-.158-.017c1.11.118 1.921-.684 1.823-1.79l.014.158c-.098-1.111.524-2.57 1.387-3.267l-.123.1c.866-.702.873-1.844.022-2.556l.121.101c-.854-.716-1.446-2.185-1.329-3.29l-.017.158c.118-1.11-.684-1.92-1.791-1.823l.158-.014c-1.11.099-2.569-.523-3.266-1.386l.1.122C8.64-.21 7.498-.218 6.786.633l.101-.121c-.716.854-2.186 1.446-3.29 1.33l.158.016c-1.11-.118-1.92.685-1.823 1.791l-.014-.158c.098 1.11-.524 2.569-1.387 3.267l.123-.1C-.21 7.36-.218 8.5.633 9.213l-.121-.101z" fill="#FF9500"/><path d="M8.027 10.367L6.252 11.45c-.567.346-.901.1-.748-.544l.483-2.022-1.58-1.353c-.504-.433-.373-.827.286-.88l2.073-.166.798-1.92c.256-.613.671-.61.925 0l.799 1.92 2.072.167c.663.053.789.448.286.879l-1.58 1.353.483 2.022c.155.647-.183.889-.748.544l-1.774-1.084z" fill="#FFF"/></g></svg>