<svg width="16" height="16" viewBox="0 0 16 16" xmlns="http://www.w3.org/2000/svg"><title>badge1 16x16</title><g fill="none" fill-rule="evenodd"><path d="M.512 9.112c.854.716 1.446 2.186 1.329 3.29l.017-.157c-.118 1.108.684 1.92 1.791 1.823l-.158.013c1.11-.098 2.569.524 3.266 1.387l-.1-.123c.702.867 1.844.873 2.556.022l-.101.121c.716-.854 2.186-1.446 3.29-1.329l-.158-.017c1.11.118 1.921-.684 1.823-1.79l.014.158c-.098-1.111.524-2.57 1.387-3.267l-.123.1c.866-.702.873-1.844.022-2.556l.121.101c-.854-.716-1.446-2.185-1.329-3.29l-.017.158c.118-1.11-.684-1.92-1.791-1.823l.158-.014c-1.11.099-2.569-.523-3.266-1.386l.1.122C8.64-.21 7.498-.218 6.786.633l.101-.121c-.716.854-2.186 1.446-3.29 1.33l.158.016c-1.11-.118-1.92.685-1.823 1.791l-.014-.158c.098 1.11-.524 2.569-1.387 3.267l.123-.1C-.21 7.36-.218 8.5.633 9.213l-.121-.101z" fill="#0F88EB"/><path d="M6.223 10.985l-2.105-2.4s-.367-.564.193-1.09c.56-.526 1.062-.175 1.062-.175l1.562 1.706 3.754-3.947s.53-.278 1.04.158c.508.437.216 1.107.216 1.107s-2.772 3.088-4.3 4.628c-.58.53-1.422.013-1.422.013z" fill="#FFF"/></g></svg>