<svg width="14" height="14" viewBox="0 0 14 14" xmlns="http://www.w3.org/2000/svg"><title>icon_purse</title><g transform="translate(0 -1)" fill="none" fill-rule="evenodd"><path d="M1.98 1.871S4.985 1.608 11 1c.935 0 1 .996 1 .996L1 3s-.023-1.041.98-1.129z" fill="#B2B2B2"/><path d="M12 2c-.034.021 0 2 0 2h-1V1s.998 0 1 1zm1 3.006v9.018C13 15 12 15 12 15V4s1 0 1 1.006z" fill="#B2B2B2"/><path d="M3 4h9.024C13 4 13 5 13 5H3V4zm8.994 11H1.976C1 15 1 14 1 14h12s0 1-1.006 1z" fill="#B2B2B2"/><circle stroke="#B2B2B2" cx="9" cy="9" r="1.5"/><path d="M1 13.994V2.976C1 2 2 2 2 2v13s-1 0-1-1.006z" fill="#B2B2B2"/></g></svg>