<svg width="24" height="22" viewBox="0 0 24 22" xmlns="http://www.w3.org/2000/svg"><title>XMLID_81_</title><path d="M8.78 13.338a.782.782 0 0 1-1.037-.32l-.051-.115-2.143-4.759a.395.395 0 0 1 .355-.565c.088 0 .17.03.235.08L8.667 9.48a1.159 1.159 0 0 0 1.046.121l11.89-5.357C19.474 1.701 15.963.039 11.99.039 5.49.04.22 4.484.22 9.968c0 2.992 1.586 5.684 4.067 7.505a.797.797 0 0 1 .288.9l-.53 2.002c-.025.094-.064.192-.064.29 0 .22.176.398.393.398a.44.44 0 0 0 .227-.074l2.576-1.506c.194-.113.4-.183.625-.183.12 0 .237.018.346.052 1.203.35 2.5.544 3.842.544 6.5 0 11.77-4.445 11.77-9.928 0-1.661-.486-3.225-1.34-4.601l-13.552 7.92-.086.051z" fill="#00AE3B" fill-rule="evenodd"/></svg>