<?xml version="1.0" encoding="utf-8"?>
<!-- Generator: Adobe Illustrator 16.0.0, SVG Export Plug-In . SVG Version: 6.00 Build 0)  -->
<!DOCTYPE svg PUBLIC "-//W3C//DTD SVG 1.1//EN" "http://www.w3.org/Graphics/SVG/1.1/DTD/svg11.dtd">
<svg version="1.1" id="图层_1" xmlns="http://www.w3.org/2000/svg" xmlns:xlink="http://www.w3.org/1999/xlink" x="0px" y="0px"
	 width="190px" height="40px" viewBox="0 0 190 40" enable-background="new 0 0 190 40" xml:space="preserve">
<g>
	<g>
		<path fill="#8994A0" d="M100.58,10.667h6.659c0.145-1.761,0.215-4.111,0.215-7.049h1.151c0,2.555-0.065,4.904-0.199,7.049h5.226
			v0.942h-5.413c-0.064,0.288-0.166,0.575-0.31,0.863c1.796,0.881,3.618,1.831,5.467,2.851l-0.683,1.007
			c-1.84-1.125-3.628-2.132-5.359-3.021c-1.071,1.247-3.109,2.31-6.11,3.191c-0.161-0.27-0.402-0.615-0.724-1.033
			c3.814-1.02,5.98-2.306,6.497-3.858h-6.417V10.667z M101.905,6.822c1.271,0.741,2.427,1.469,3.473,2.184l-0.658,0.903
			c-1.026-0.75-2.166-1.513-3.416-2.289L101.905,6.822z M103.246,4.01c1.35,0.802,2.479,1.517,3.392,2.145l-0.671,0.89
			c-1.197-0.881-2.296-1.635-3.296-2.263L103.246,4.01z"/>
		<path fill="#8994A0" d="M114.77,7.646c1.447-1.16,2.69-2.542,3.726-4.146h1.221c-0.278,0.436-0.561,0.854-0.853,1.255h6.561v0.929
			c-1.056,0.994-2.16,1.829-3.317,2.504c1.359,0.493,3.156,0.844,5.394,1.053c-0.304,0.41-0.499,0.79-0.589,1.138
			c-2.551-0.427-4.527-0.961-5.93-1.602c-1.596,0.728-3.715,1.362-6.357,1.903c-0.134-0.314-0.296-0.628-0.483-0.942
			c2.475-0.444,4.397-0.948,5.769-1.51c-0.813-0.484-1.579-1.118-2.298-1.903c-0.644,0.732-1.322,1.404-2.037,2.014
			C115.253,8.025,114.984,7.794,114.77,7.646z M117.985,12.38l0.792,0.719c-1.09,0.916-2.288,1.81-3.591,2.681
			c-0.206-0.262-0.433-0.528-0.685-0.798C115.735,14.242,116.897,13.374,117.985,12.38z M115.454,10.968h4.971V9.673h1.06v1.295
			h4.648v0.929h-4.648v2.747c0,1.02-0.551,1.53-1.649,1.53c-0.482,0-1.045-0.004-1.688-0.013c-0.054-0.358-0.119-0.741-0.199-1.151
			c0.624,0.07,1.147,0.104,1.566,0.104c0.607,0,0.911-0.318,0.911-0.955v-2.263h-4.971V10.968z M124.057,5.632h-5.842
			c0.786,0.824,1.722,1.515,2.806,2.073C122.08,7.143,123.093,6.451,124.057,5.632z M122.744,13.256l0.616-0.745
			c1.475,0.785,2.772,1.535,3.898,2.25l-0.644,0.916C125.544,14.926,124.253,14.12,122.744,13.256z"/>
	</g>
</g>
<g>
	<path fill="#FFFFFF" d="M100,34.686c4.213-2.35,6.441-6.471,6.683-12.364h1.275c-0.053,0.998-0.154,1.949-0.306,2.854
		c1.198,4.662,3.448,7.729,6.755,9.203c-0.407,0.429-0.763,0.834-1.074,1.217c-2.868-1.566-4.915-4.338-6.136-8.315
		c-1.061,3.842-3.154,6.665-6.283,8.469C100.653,35.403,100.348,35.049,100,34.686z"/>
	<path fill="#FFFFFF" d="M114.842,34.686c4.213-2.35,6.441-6.471,6.679-12.364h1.275c-0.049,0.998-0.154,1.949-0.302,2.854
		c1.198,4.662,3.448,7.729,6.751,9.203c-0.403,0.429-0.763,0.834-1.07,1.217c-2.872-1.566-4.915-4.338-6.14-8.315
		c-1.057,3.842-3.15,6.665-6.283,8.469C115.491,35.403,115.189,35.049,114.842,34.686z"/>
	<path fill="#FFFFFF" d="M129.725,26.797h3.129v-1.832h-2.607v-0.923h2.607v-1.888h1.043v1.888h2.132v0.923h-2.132v1.832h0.735
		c0.983-0.998,1.813-2.084,2.484-3.259l0.983,0.518c-0.626,0.971-1.325,1.884-2.1,2.741h2.159v0.924h-3.042
		c-0.543,0.536-1.116,1.049-1.725,1.538h3.71v6.531h-1.043v-0.839h-3.695v0.853h-1.047v-5.041c-0.324,0.214-0.658,0.421-0.998,0.622
		c-0.182-0.289-0.421-0.597-0.709-0.923c1.525-0.812,2.87-1.726,4.036-2.741h-3.922V26.797z M136.06,30.14h-3.695v1.539h3.695V30.14
		z M132.364,34.07h3.695v-1.539h-3.695V34.07z M142.001,27.706c1.296,1.026,1.949,2.247,1.972,3.665
		c0,1.482-0.635,2.298-1.898,2.447c-0.494,0.056-1.138,0.037-1.93-0.056c-0.046-0.336-0.108-0.742-0.188-1.217
		c0.667,0.131,1.202,0.195,1.609,0.195c0.948,0,1.369-0.578,1.259-1.734c-0.028-0.914-0.731-1.949-2.114-3.104
		c0.531-1.017,1.15-2.341,1.854-3.973h-2.841V35.86h-1.07V22.951h5.059v1.091C143.19,25.292,142.619,26.513,142.001,27.706z"/>
	<path fill="#FFFFFF" d="M147.535,30.531l1.103,0.322c-0.154,0.489-0.332,0.953-0.527,1.392c0.73,1.146,1.827,1.834,3.281,2.063
		v-4.21h-6.609v-0.979h13.941v0.979h-6.171v1.398h5.159v0.951h-5.159v1.944c1.853,0.037,4.004,0.019,6.449-0.056
		c-0.154,0.4-0.293,0.769-0.407,1.104c-2.84,0.009-5.024-0.005-6.55-0.042c-2.044-0.022-3.52-0.755-4.429-2.195
		c-0.663,1.151-1.499,2.084-2.514,2.797c-0.192-0.279-0.429-0.582-0.71-0.909C145.949,34.084,146.996,32.564,147.535,30.531z
		 M146.813,22.644h9.853v5.832h-1.099v-0.56h-7.651v0.56h-1.103V22.644z M155.566,23.595h-7.651v1.217h7.651V23.595z
		 M147.915,26.965h7.651v-1.23h-7.651V26.965z"/>
	<path fill="#FFFFFF" d="M159.478,33.986h6.449v-4.028h-5.306v-1.063h5.306v-3.189h-5.868v-1.063h12.926v1.063h-5.81v3.189h5.302
		v1.063h-5.302v4.028h6.449v1.034h-14.146V33.986z M165.378,22.573l1.07-0.531c0.591,0.848,1.016,1.506,1.276,1.972l-1.144,0.588
		C166.06,23.669,165.658,22.993,165.378,22.573z"/>
	<path fill="#FFFFFF" d="M174.146,33.217c1.182-0.154,2.572-0.35,4.172-0.588c0.39-1.235,0.581-2.76,0.581-4.573v-4.531h4.082
		c-0.229-0.392-0.446-0.736-0.647-1.035L183.436,22c0.274,0.425,0.586,0.932,0.928,1.524h3.418v3.832h-0.984v-0.447h-6.911v1.161
		c0,3.599-0.713,6.2-2.131,7.804c-0.206-0.289-0.438-0.578-0.714-0.867c0.362-0.405,0.664-0.886,0.915-1.44
		c-1.481,0.289-2.667,0.526-3.55,0.713L174.146,33.217z M175.856,30.35c0.454-0.019,1.29-0.084,2.507-0.195
		c-0.05,0.392-0.087,0.694-0.119,0.908c-1.892,0.159-3.095,0.275-3.604,0.35l-0.205-0.881c0.493-0.476,1.136-1.429,1.93-2.86
		c-0.741,0.057-1.381,0.11-1.93,0.161l-0.275-0.881c0.929-1.427,1.744-3.03,2.448-4.812l1.133,0.392
		c-0.813,1.67-1.596,3.114-2.35,4.336c0.315,0,0.784-0.007,1.416-0.021c0.255-0.48,0.523-1.005,0.802-1.573l1.043,0.448
		C177.417,27.874,176.484,29.418,175.856,30.35z M186.797,24.42h-6.911v1.594h6.911V24.42z M181.263,35.79h-0.929v-7.454H188v6.182
		c0,0.812-0.375,1.217-1.13,1.217c-0.529,0.019-0.95,0.028-1.262,0.028c-0.036-0.261-0.089-0.504-0.152-0.728h-0.672V32.21h-1.321
		v2.881h-0.883V32.21h-1.317V35.79z M181.263,31.356h1.317V29.23h-1.317V31.356z M183.463,31.356h1.321V29.23h-1.321V31.356z
		 M187.03,29.23h-1.363v2.126h1.363V29.23z M186.463,34.854c0.38,0,0.567-0.201,0.567-0.602V32.21h-1.363v2.622
		C185.914,34.846,186.181,34.854,186.463,34.854z"/>
</g>
<g>
	<g>
		<path fill="#70A1CA" d="M28.047,33.78c-3.17,1.813-6.749,2.72-10.739,2.72c-4.59,0-8.29-1.458-11.097-4.379
			C3.404,29.202,2,25.301,2,20.423c0-4.933,1.55-8.987,4.651-12.161C9.753,5.087,13.729,3.5,18.579,3.5
			c3.429,0,6.332,0.55,8.709,1.649v4.453C24.747,7.994,21.721,7.19,18.21,7.19c-3.457,0-6.305,1.189-8.546,3.565
			c-2.24,2.378-3.361,5.511-3.361,9.4c0,3.999,1.032,7.112,3.095,9.338c2.063,2.227,4.85,3.338,8.361,3.338
			c2.418,0,4.475-0.466,6.168-1.4v-8.638h-6.886v-3.648h11.005V33.78z"/>
		<path fill="#70A1CA" d="M50.333,35.965H33.262V4.036h16.354v3.669H37.36v10.223h11.353v3.648H37.36v10.739h12.973V35.965z"/>
		<path fill="#70A1CA" d="M71.41,35.965H54.338V4.036h16.354v3.669H58.438v10.223h11.354v3.648H58.438v10.739H71.41V35.965z"/>
		<path fill="#70A1CA" d="M98,35.965h-5.616L80.457,21.454c-0.41-0.509-0.69-0.907-0.84-1.196h-0.103v15.707h-4.098V4.036h4.098
			v15.026h0.103c0.232-0.371,0.512-0.763,0.84-1.175L91.974,4.036h5.062L83.715,19.352L98,35.965z"/>
	</g>
</g>
</svg>
