<?xml version="1.0" encoding="utf-8"?>
<!-- Generator: Adobe Illustrator 16.0.0, SVG Export Plug-In . SVG Version: 6.00 Build 0)  -->
<!DOCTYPE svg PUBLIC "-//W3C//DTD SVG 1.1//EN" "http://www.w3.org/Graphics/SVG/1.1/DTD/svg11.dtd">
<svg version="1.1" id="图层_1" xmlns="http://www.w3.org/2000/svg" xmlns:xlink="http://www.w3.org/1999/xlink" x="0px" y="0px"
	 width="20px" height="20px" viewBox="0 0 20 20" enable-background="new 0 0 20 20" xml:space="preserve">
<g>
	<path fill="#3990E6" d="M18.998,14.995c-0.277,0-0.5,0.224-0.5,0.5V18.5h-17v-17h3c0.276,0,0.5-0.224,0.5-0.5
		c0-0.275-0.224-0.5-0.5-0.5h-3.25c-0.044,0-0.084,0.015-0.125,0.025C1.082,0.515,1.042,0.5,0.998,0.5c-0.276,0-0.5,0.225-0.5,0.5
		v18c0,0.275,0.224,0.5,0.5,0.5h18c0.068,0,0.135-0.014,0.193-0.039c0.18-0.076,0.307-0.254,0.307-0.46v-3.506
		C19.498,15.219,19.273,14.995,18.998,14.995z"/>
	<path fill="#3990E6" d="M19.498,1.023c0-0.008,0.004-0.015,0.004-0.023c0-0.276-0.213-0.5-0.479-0.5h-8.047
		c-0.267,0-0.479,0.224-0.479,0.5s0.213,0.5,0.479,0.5h6.864L6.494,12.848c-0.195,0.195-0.195,0.512,0,0.707
		c0.195,0.195,0.512,0.195,0.707,0L18.498,2.258v6.713c0,0.292,0.223,0.529,0.5,0.529c0.275,0,0.5-0.237,0.5-0.529v-7.9
		C19.498,1.055,19.498,1.04,19.498,1.023z"/>
</g>
</svg>
