<svg width="30" height="540" viewBox="0 0 30 540" xmlns="http://www.w3.org/2000/svg" xmlns:xlink="http://www.w3.org/1999/xlink"><view viewBox="0 0 30 30"/><svg width="30" height="30" viewBox="-10 -10 30 30"><path fill="#FFB502" stroke="#FFF" stroke-width=".7" stroke-miterlimit="10" d="M5 .5C7.475.5 9.5 2.524 9.5 5c0 2.475-2.025 4.5-4.5 4.5A4.513 4.513 0 0 1 .5 5C.5 2.524 2.524.5 5 .5"/><path fill="#FFF" d="M7.409 3.156h.032-.877L5 6.285 3.436 3.156H2.56l.25.626 1.877 3.755h.626L7.19 3.782h.033z"/></svg><view viewBox="0 30 30 30"/><svg width="30" height="30" viewBox="-10 -10 30 30" y="30"><path fill="#00A4FF" stroke="#FFF" stroke-width=".7" stroke-miterlimit="10" d="M5 .5C7.475.5 9.5 2.525 9.5 5c0 2.474-2.026 4.5-4.5 4.5S.5 7.475.5 5 2.525.5 5 .5"/><path fill="#FFF" d="M7.49 3.094h.032-.905L5 6.328 3.383 3.094h-.905l.258.647 1.941 3.88h.646l1.94-3.88h.033z"/></svg><view viewBox="0 60 30 30"/><svg width="30" height="30" viewBox="-10 -10 30 30" y="60"><path fill="#ED3714" stroke="#FFF" stroke-width=".7" stroke-miterlimit="10" d="M5 .5C7.475.5 9.5 2.525 9.5 5c0 2.476-2.025 4.5-4.5 4.5S.5 7.476.5 5C.5 2.525 2.525.5 5 .5"/><path fill="#FFF" d="M7.919 4.058H5.994L4.967 1.844l-.993 2.214H2.081l1.411 1.571-.449 2.182 4.876-3.753zm-3.496.609L5 3.512l.545 1.155h.417l-1.893 1.54.161-.642-.641-.898h.834zm.738 2.213l2.02.93-.513-2.213L5.161 6.88z"/></svg><view viewBox="0 90 30 30"/><svg width="30" height="30" viewBox="-10 -10 30 30" y="90"><path fill="#FD5093" stroke="#FFF" stroke-width=".7" stroke-miterlimit="10" d="M5 .5C7.475.5 9.5 2.525 9.5 5S7.475 9.5 5 9.5.5 7.475.5 5 2.525.5 5 .5"/><path fill="#FFF" d="M7.47 4.125V2.561c-1.473.153-2.116 3.682-2.116 3.682h-.645S4.003 2.714 2.53 2.561v1.565s.736 1.687 1.534 2.117v.584h-.613l-.307.306v.307h.675l.307-.307h1.841l.307.307h.613v-.307l-.306-.307h-.584v-.583c.768-.399 1.473-2.118 1.473-2.118z"/></svg><view viewBox="0 120 30 30"/><svg width="30" height="30" viewBox="-10 -10 30 30" y="120"><path fill="#77C2F9" d="M5 0a5 5 0 1 1 0 10A5 5 0 0 1 5 0z"/><path fill="#FFF" d="M7.363 2.345H5.898a.293.293 0 1 0 0 .586h.763l-.82.82a2.177 2.177 0 1 0 .415.416l.814-.815v.75a.293.293 0 1 0 .586 0V2.638a.295.295 0 0 0-.293-.293M4.512 6.987a1.512 1.512 0 1 1 0-3.025 1.512 1.512 0 0 1 0 3.025"/></svg><view viewBox="0 150 30 30"/><svg width="30" height="30" viewBox="-10 -10 30 30" y="150"><path fill="#F880AB" d="M5 0a5 5 0 1 1 0 10A5 5 0 0 1 5 0z"/><path fill="#FFF" d="M5.507 2.322a2.178 2.178 0 0 0-2.178 2.177c0 .481.158.924.423 1.285l-.309.309-.572-.571s-.229-.229-.457 0c-.229.228 0 .457 0 .457l.572.571-.572.572.457.457.572-.572.571.572s.229.228.457 0c.229-.229 0-.457 0-.457L3.9 6.55l.307-.307c.363.271.813.434 1.3.434a2.177 2.177 0 0 0 0-4.355m-.023 3.693a1.507 1.507 0 1 1 0-3.013 1.507 1.507 0 0 1 0 3.013"/></svg><view viewBox="0 180 30 30"/><svg width="30" height="30" viewBox="-10 -10 30 30" y="180"><path fill="#FDB713" d="M7.143 1.438a6.042 6.042 0 0 1-.866.682C6.905 1.271 6.905.007 5.013 0 3.094.007 3.097 1.283 3.741 2.131a5.913 5.913 0 0 1-.884-.693C.714 1.438 0 3.578 0 4.292 0 6.433 1.428 7.86 1.428 7.86v.714L2.143 10h5.715l.714-1.427v-.714S10 6.432 10 4.291c0-.713-.715-2.853-2.857-2.853"/><path fill="#FDE253" d="M2.142 9.28h5.715v-.715H2.142v.715m2.864-6.822c.675 0 1.895-1.748 0-1.748-1.92 0-.675 1.748 0 1.748m2.137-.313c-.715 1.069-2.137 1.084-2.137 1.084s-1.435-.013-2.149-1.084C1.165 2.642.714 3.571.714 4.643a2.838 2.838 0 0 0 1.428 2.499v.715h5.714v-.715s1.428-.714 1.428-2.499c.001-1.072-.45-2.001-2.141-2.498"/><linearGradient id="a" gradientUnits="userSpaceOnUse" x1="-3.44" y1="792.106" x2="-3.44" y2="795.941" gradientTransform="translate(8.44 -788.746)"><stop offset="0" stop-color="#e82208" stop-opacity=".9"/><stop offset="1" stop-color="#cc1108" stop-opacity=".9"/></linearGradient><path fill="url(#a)" d="M1.434 4.631c.023 1.204 1.786 2.51 1.786 2.51h1.071V3.573c-.715 0-1.451-.513-1.451-.513s-1.429.367-1.406 1.571M7.148 3.06s-.357.513-1.428.513v3.568h1.071s1.751-1.294 1.774-2.498C8.588 3.438 7.148 3.06 7.148 3.06"/><linearGradient id="b" gradientUnits="userSpaceOnUse" x1="-3.44" y1="791.805" x2="-3.44" y2="795.886" gradientTransform="translate(8.44 -788.746)"><stop offset="0" stop-color="#e82208" stop-opacity=".8"/><stop offset="1" stop-color="#cc1108"/></linearGradient><path fill="url(#b)" stroke="#C62B1A" stroke-width=".75" stroke-miterlimit="10" d="M1.434 4.631c.023 1.204 1.786 2.51 1.786 2.51h1.071V3.573c-.715 0-1.451-.513-1.451-.513s-1.429.367-1.406 1.571zM7.148 3.06s-.357.513-1.428.513v3.568h1.071s1.751-1.294 1.774-2.498C8.588 3.438 7.148 3.06 7.148 3.06z"/></svg><view viewBox="0 210 30 30"/><svg width="30" height="30" viewBox="-10 -10 30 30" y="210"><path fill="#969696" d="M7.143 1.437c-.236.234-.55.472-.866.683.628-.848.628-2.115-1.264-2.12C3.095.008 3.098 1.284 3.74 2.131a6.017 6.017 0 0 1-.884-.693C.714 1.437 0 3.578 0 4.291 0 6.433 1.429 7.86 1.429 7.86v.715L2.143 10h5.715l.714-1.425v-.716S10 6.432 10 4.29c0-.713-.715-2.853-2.857-2.853"/><path fill="#FEFEFE" d="M2.143 9.281h5.715v-.715H2.143v.715m2.863-6.824c.675 0 1.893-1.747 0-1.747-1.919 0-.675 1.747 0 1.747m2.137-.314c-.714 1.07-2.137 1.084-2.137 1.084s-1.435-.012-2.149-1.084C1.165 2.641.714 3.57.714 4.643a2.84 2.84 0 0 0 1.428 2.5v.715h5.715v-.715s1.427-.715 1.427-2.5c.001-1.073-.45-2.002-2.141-2.5"/><linearGradient id="c" gradientUnits="userSpaceOnUse" x1="-3.4" y1="-3.123" x2="-3.4" y2=".632" gradientTransform="matrix(1 0 0 -1 8.4 4.1)"><stop offset="0" stop-color="#959595"/><stop offset="1" stop-color="#b8b8b8"/></linearGradient><linearGradient id="d" gradientUnits="userSpaceOnUse" x1="-7.342" y1="-.985" x2=".541" y2="-.985" gradientTransform="matrix(1 0 0 -1 8.4 4.1)"><stop offset="0" stop-color="#acacac"/><stop offset="1" stop-color="#bcbcbc"/></linearGradient><path fill="url(#c)" stroke="url(#d)" stroke-width=".75" stroke-miterlimit="10" d="M1.434 4.631c.022 1.204 1.786 2.51 1.786 2.51h1.071V3.572c-.714 0-1.451-.513-1.451-.513s-1.428.368-1.406 1.572m5.713-1.572s-.357.512-1.427.512V7.14h1.07s1.752-1.294 1.775-2.498c.023-1.204-1.418-1.583-1.418-1.583"/><path fill="none" stroke="#8E8E8E" stroke-width=".75" stroke-miterlimit="10" d="M1.434 4.631c.022 1.204 1.786 2.51 1.786 2.51h1.071V3.572c-.714 0-1.451-.513-1.451-.513s-1.428.368-1.406 1.572zm5.713-1.572s-.357.512-1.427.512V7.14h1.07s1.752-1.294 1.775-2.498c.023-1.204-1.418-1.583-1.418-1.583z"/></svg><view viewBox="0 240 30 30"/><svg width="30" height="30" viewBox="-10 -10 30 30" y="240"><path fill="#929292" d="M9.771 4.195a1.242 1.242 0 0 0-.959-.583l-2.566-.005c.207-.5.325-1.045.325-1.621a6.56 6.56 0 0 0-.032-.496S6.455.22 5.36.22c-.636 0-1.152.519-1.152 1.159 0 .09-.003.137-.003.13a2.457 2.457 0 0 1-2.238 2.442H.395l-.002.001H.372l.011.002a.343.343 0 0 0-.238.105.336.336 0 0 0-.102.239v5.134c0 .097.045.183.113.245a.31.31 0 0 0 .216.102h.001l.008.001h7.698c-.107 0 .286-.03.53-.183a1.21 1.21 0 0 0 .547-.892c0-.005.005.014.006.009l.794-3.82a1.256 1.256 0 0 0-.185-.699M1.76 9.096H.734V4.638H1.76v4.458m6.784-.594c.01-.033.007-.029-.01.056l.01-.056c-.021.081-.116.426-.246.509-.157.098-.256.083-.256.083h-5.6V4.521c1.073-.317 1.96-1.195 2.291-2.17v.001c.041-.116.072-.229.079-.32.035-.392.062-.719.062-.719s.03-.444.467-.444c.249 0 .458.176.499.444.017.03.037.175.035.65-.028.509-.11.884-.155 1.025a3.13 3.13 0 0 1-.275.668s-.087.114-.087.294c0 .19.148.343.33.343l3.122.019a.482.482 0 0 1 .417.221.471.471 0 0 1 .063.293l-.746 3.676"/></svg><view viewBox="0 270 30 30"/><svg width="30" height="30" viewBox="-10 -10 30 30" y="270"><path fill="#E04023" d="M9.769 4.196a1.246 1.246 0 0 0-.96-.584l-2.564-.004c.206-.5.323-1.046.323-1.621a6.609 6.609 0 0 0-.029-.497S6.455.22 5.36.22c-.637 0-1.153.519-1.153 1.159 0 .09-.002.137-.002.131a2.457 2.457 0 0 1-2.238 2.441H.395l-.002.001H.371l.012.001a.342.342 0 0 0-.237.106.336.336 0 0 0-.103.24v5.132c0 .098.044.184.113.246a.31.31 0 0 0 .216.101h.001l.009.001H8.08c-.107 0 .287-.03.53-.184.321-.205.507-.538.546-.89 0-.006.005.013.006.007l.793-3.818a1.232 1.232 0 0 0-.186-.698M1.761 9.095H.735V4.637H1.76v4.458m6.785-.593c.009-.033.006-.027-.011.056l.011-.056c-.021.082-.116.427-.247.51-.157.1-.256.083-.256.083H2.445V4.521c1.073-.317 1.958-1.194 2.29-2.17l.002.001c.041-.116.072-.229.08-.32.034-.392.06-.719.06-.719s.031-.444.468-.444c.248 0 .458.178.498.444.018.03.037.176.034.65-.027.51-.108.884-.156 1.025a3.013 3.013 0 0 1-.273.669s-.087.114-.087.293c0 .19.149.344.331.344l3.12.018a.473.473 0 0 1 .415.221c.055.091.07.194.063.293l-.747 3.676"/><path fill="#FFD7A5" d="M.736 9.083h1.022V4.639H.736v4.444m7.776-.534c.018-.084.02-.09.012-.057l-.012.057m.692-4.015a.478.478 0 0 0-.414-.22l-3.112-.018a.337.337 0 0 1-.33-.341.52.52 0 0 1 .086-.293c.118-.226.207-.416.273-.667.046-.14.127-.514.156-1.021.005-.474-.016-.62-.033-.651A.503.503 0 0 0 5.333.88c-.436 0-.466.443-.466.443s-.027.327-.062.718c-.007.09-.038.204-.079.319h-.001c-.331.973-1.215 1.848-2.284 2.164v4.56h5.581s.099.017.255-.082c.129-.082.224-.426.247-.507l.742-3.667a.48.48 0 0 0-.062-.294"/><path fill="#F48700" d="M.736 4.639h1.022v4.445H.736V4.639z"/></svg><view viewBox="0 300 30 30"/><svg width="30" height="30" viewBox="-10 -10 30 30" y="300"><path fill="#FD9426" d="M9.847 8.527A5157.17 5157.17 0 0 0 5.471.904c-.211-.353-.74-.388-.952 0-.317.6-4.128 7.269-4.34 7.623a.549.549 0 0 0 .458.847h8.715c.46 0 .672-.495.495-.847z"/><path fill="#FFF" d="M5.013 2.811c.141 0 .282.105.282.282v3.812c0 .14-.106.281-.282.281a.277.277 0 0 1-.282-.281V3.092c0-.141.141-.281.282-.281zm0 4.904c.141 0 .282.106.282.283a.278.278 0 0 1-.282.282.278.278 0 0 1-.282-.282c0-.142.141-.283.282-.283z"/></svg><view viewBox="0 330 30 30"/><svg width="30" height="30" viewBox="-10 -10 30 30" y="330"><path fill="#FDB206" d="M7.143 1.438a5.925 5.925 0 0 1-.867.681C6.904 1.271 6.904.007 5.013 0 3.094.007 3.097 1.283 3.74 2.131a6.154 6.154 0 0 1-.884-.693C.714 1.438 0 3.577 0 4.291c0 2.142 1.428 3.568 1.428 3.568v.714L2.143 10h5.715l.714-1.427v-.714s1.429-1.427 1.429-3.568C10 3.577 9.284 1.438 7.143 1.438"/><path fill="#FDD93A" d="M2.142 9.273h5.715v-.714H2.142v.714m2.863-6.821c.676 0 1.894-1.748 0-1.748-1.919 0-.674 1.748 0 1.748m2.138-.314c-.715 1.07-2.137 1.084-2.137 1.084s-1.435-.012-2.15-1.084C1.164 2.635.714 3.564.714 4.637a2.835 2.835 0 0 0 1.429 2.498v.715h5.714v-.715s1.428-.714 1.428-2.498c-.001-1.073-.451-2.002-2.142-2.499"/><linearGradient id="e" gradientUnits="userSpaceOnUse" x1="-11.94" y1="-806.101" x2="-11.94" y2="-809.936" gradientTransform="matrix(1 0 0 -1 16.94 -802.746)"><stop offset="0" stop-color="#e82208" stop-opacity=".9"/><stop offset="1" stop-color="#cc1108" stop-opacity=".9"/></linearGradient><path fill="url(#e)" d="M1.434 4.625C1.456 5.829 3.22 7.134 3.22 7.134h1.071V3.567c-.714 0-1.451-.513-1.451-.513s-1.429.367-1.406 1.571m5.714-1.572s-.358.513-1.428.513v3.567h1.07s1.753-1.294 1.775-2.498c.023-1.203-1.417-1.582-1.417-1.582"/><linearGradient id="f" gradientUnits="userSpaceOnUse" x1="-11.94" y1="-805.799" x2="-11.94" y2="-809.88" gradientTransform="matrix(1 0 0 -1 16.94 -802.746)"><stop offset="0" stop-color="#e02613"/><stop offset="1" stop-color="#ae1e24" stop-opacity=".995"/></linearGradient><linearGradient id="g" gradientUnits="userSpaceOnUse" x1="-3.4" y1="-16.524" x2="-3.4" y2="-21.409" gradientTransform="matrix(1 0 0 -1 8.4 -13.9)"><stop offset="0" stop-color="#c6271e"/><stop offset=".988" stop-color="#ae1e24" stop-opacity=".995"/></linearGradient><path fill="url(#f)" stroke="url(#g)" stroke-width=".75" stroke-miterlimit="10" d="M1.434 4.625C1.456 5.829 3.22 7.134 3.22 7.134h1.071V3.567c-.714 0-1.451-.513-1.451-.513s-1.429.367-1.406 1.571zm5.714-1.572s-.358.513-1.428.513v3.567h1.07s1.753-1.294 1.775-2.498c.023-1.203-1.417-1.582-1.417-1.582z"/><path fill="#FFF" d="M7.451 9.642l.008-2.732h-.708V5.466h2.148l-.008 4.176z"/><path fill="#F6AB00" d="M8.541 5.824l-.007 3.461H7.81l.008-2.732h-.709v-.729h1.432m.717-.715H6.394v2.159h.707l-.006 2.014-.002.718H9.25v-.714l.007-3.461.001-.716z"/></svg><view viewBox="0 360 30 30"/><svg width="30" height="30" viewBox="-10 -10 30 30" y="360"><path fill="#FDB206" d="M7.143 1.437a5.925 5.925 0 0 1-.867.681C6.904 1.271 6.904.007 5.013 0 3.094.007 3.097 1.283 3.74 2.13a6.017 6.017 0 0 1-.884-.693C.714 1.437 0 3.575 0 4.29c0 2.139 1.428 3.567 1.428 3.567v.712l.714 1.427h5.715l.714-1.427v-.713s1.428-1.427 1.428-3.567c0-.714-.715-2.852-2.856-2.852"/><path fill="#FDD93A" d="M2.142 9.269h5.714v-.714H2.142v.714m2.863-6.818c.675 0 1.894-1.747 0-1.747-1.919 0-.674 1.747 0 1.747m2.138-.314c-.715 1.07-2.138 1.084-2.138 1.084s-1.434-.012-2.149-1.084C1.164 2.634.714 3.563.714 4.635a2.834 2.834 0 0 0 1.429 2.497v.715h5.714v-.715s1.428-.714 1.428-2.497c-.001-1.072-.451-2.001-2.142-2.498"/><linearGradient id="h" gradientUnits="userSpaceOnUse" x1="-11.941" y1="-806.1" x2="-11.941" y2="-809.934" gradientTransform="matrix(1 0 0 -1 16.94 -802.746)"><stop offset="0" stop-color="#e82208" stop-opacity=".9"/><stop offset="1" stop-color="#cc1108" stop-opacity=".9"/></linearGradient><path fill="url(#h)" d="M1.434 4.623C1.456 5.827 3.22 7.132 3.22 7.132h1.07V3.565c-.714 0-1.451-.512-1.451-.512s-1.428.366-1.405 1.57m5.713-1.571s-.356.512-1.428.512v3.567H6.79s1.752-1.294 1.773-2.498c.024-1.202-1.416-1.581-1.416-1.581"/><linearGradient id="i" gradientUnits="userSpaceOnUse" x1="-11.941" y1="-805.798" x2="-11.941" y2="-809.878" gradientTransform="matrix(1 0 0 -1 16.94 -802.746)"><stop offset="0" stop-color="#e02613"/><stop offset="1" stop-color="#ae1e24" stop-opacity=".995"/></linearGradient><linearGradient id="j" gradientUnits="userSpaceOnUse" x1="-3.401" y1="-16.523" x2="-3.401" y2="-21.407" gradientTransform="matrix(1 0 0 -1 8.4 -13.9)"><stop offset="0" stop-color="#c6271e"/><stop offset=".988" stop-color="#ae1e24" stop-opacity=".995"/></linearGradient><path fill="url(#i)" stroke="url(#j)" stroke-width=".75" stroke-miterlimit="10" d="M1.434 4.623C1.456 5.827 3.22 7.132 3.22 7.132h1.07V3.565c-.714 0-1.451-.512-1.451-.512s-1.428.366-1.405 1.57zm5.713-1.571s-.356.512-1.428.512v3.567H6.79s1.752-1.294 1.773-2.498c.024-1.202-1.416-1.581-1.416-1.581z"/><path fill="#FFF" d="M6.764 9.644V5.34h2.871v2.851h.008v1.453z"/><path fill="#F6AB00" d="M9.276 5.697v2.144H7.855v.707h1.429v.737H7.12V7.117h1.448v-.703H7.12v-.717h2.156m.716-.715H6.405V10H10V7.834h-.008V4.982z"/></svg><view viewBox="0 390 30 30"/><svg width="30" height="30" viewBox="-10 -10 30 30" y="390"><path fill="#FDB206" d="M7.143 1.462a5.904 5.904 0 0 1-.866.682c.628-.847.628-2.112-1.265-2.119C3.095.032 3.098 1.308 3.74 2.156a6.074 6.074 0 0 1-.884-.694C.714 1.462 0 3.602 0 4.316c0 2.141 1.429 3.568 1.429 3.568v.713l.714 1.427h5.716l.713-1.427v-.712s1.429-1.428 1.429-3.568C10 3.602 9.285 1.462 7.143 1.462"/><path fill="#FDD93A" d="M2.143 9.298h5.715v-.714H2.143v.714m2.863-6.821c.676 0 1.895-1.748 0-1.748-1.919 0-.675 1.748 0 1.748m2.137-.314c-.714 1.069-2.137 1.084-2.137 1.084s-1.435-.012-2.15-1.084C1.165 2.66.714 3.589.714 4.662A2.837 2.837 0 0 0 2.143 7.16v.716h5.715V7.16s1.428-.715 1.428-2.498c-.001-1.073-.451-2.002-2.143-2.499"/><linearGradient id="k" gradientUnits="userSpaceOnUse" x1="-11.94" y1="-806.126" x2="-11.94" y2="-809.961" gradientTransform="matrix(1 0 0 -1 16.94 -802.746)"><stop offset="0" stop-color="#e82208" stop-opacity=".9"/><stop offset="1" stop-color="#cc1108" stop-opacity=".9"/></linearGradient><path fill="url(#k)" d="M1.435 4.65C1.457 5.854 3.22 7.159 3.22 7.159h1.071V3.591c-.715 0-1.451-.513-1.451-.513s-1.428.368-1.405 1.572m5.713-1.572s-.357.513-1.428.513v3.568h1.07s1.752-1.294 1.774-2.498-1.416-1.583-1.416-1.583"/><linearGradient id="l" gradientUnits="userSpaceOnUse" x1="-11.94" y1="-805.824" x2="-11.94" y2="-809.905" gradientTransform="matrix(1 0 0 -1 16.94 -802.746)"><stop offset="0" stop-color="#e02613"/><stop offset="1" stop-color="#ae1e24" stop-opacity=".995"/></linearGradient><linearGradient id="m" gradientUnits="userSpaceOnUse" x1="-3.4" y1="-16.549" x2="-3.4" y2="-21.435" gradientTransform="matrix(1 0 0 -1 8.4 -13.9)"><stop offset="0" stop-color="#c6271e"/><stop offset=".988" stop-color="#ae1e24" stop-opacity=".995"/></linearGradient><path fill="url(#l)" stroke="url(#m)" stroke-width=".75" stroke-miterlimit="10" d="M1.435 4.65C1.457 5.854 3.22 7.159 3.22 7.159h1.071V3.591c-.715 0-1.451-.513-1.451-.513s-1.428.368-1.405 1.572zm5.713-1.572s-.357.513-1.428.513v3.568h1.07s1.752-1.294 1.774-2.498-1.416-1.583-1.416-1.583z"/><path fill="#FFF" d="M6.764 9.656V8.211h1.427v-.016H6.764V5.331h2.88v4.325z"/><path fill="#F6AB00" d="M9.285 5.688v3.609H7.121v-.729h1.428v-.73H7.121v-.73h1.428v-.695H7.121v-.725h2.164M10 4.973H6.404v5.04H10v-5.04z"/></svg><view viewBox="0 420 30 30"/><svg width="30" height="30" viewBox="-10 -10 30 30" y="420"><path fill="#FDB206" d="M7.13 1.437c-.235.235-.55.471-.864.681C6.894 1.271 6.894.007 5.004 0 3.089.007 3.092 1.283 3.733 2.13a6 6 0 0 1-.882-.694C.713 1.437 0 3.576 0 4.29c0 2.14 1.426 3.566 1.426 3.566v.713l.713 1.427h5.704l.714-1.427v-.713S9.982 6.429 9.982 4.29c-.001-.714-.714-2.853-2.852-2.853"/><path fill="#FDD93A" d="M2.139 9.271h5.704v-.715H2.139v.715m2.858-6.82c.674 0 1.892-1.747 0-1.747-1.916 0-.674 1.747 0 1.747m2.133-.314c-.713 1.07-2.133 1.084-2.133 1.084s-1.433-.012-2.145-1.084C1.162 2.634.713 3.563.713 4.635a2.837 2.837 0 0 0 1.426 2.498v.715h5.704v-.715s1.425-.715 1.425-2.498c0-1.072-.45-2.001-2.138-2.498"/><linearGradient id="n" gradientUnits="userSpaceOnUse" x1="-11.949" y1="-806.1" x2="-11.949" y2="-809.934" gradientTransform="matrix(1 0 0 -1 16.94 -802.746)"><stop offset="0" stop-color="#e82208" stop-opacity=".9"/><stop offset="1" stop-color="#cc1108" stop-opacity=".9"/></linearGradient><path fill="url(#n)" d="M1.432 4.623c.022 1.204 1.782 2.509 1.782 2.509h1.068V3.565c-.712 0-1.447-.513-1.447-.513s-1.426.368-1.403 1.571m5.704-1.571s-.357.513-1.426.513v3.567h1.068s1.75-1.294 1.771-2.497c.023-1.204-1.413-1.583-1.413-1.583"/><linearGradient id="o" gradientUnits="userSpaceOnUse" x1="-11.949" y1="-805.798" x2="-11.949" y2="-809.878" gradientTransform="matrix(1 0 0 -1 16.94 -802.746)"><stop offset="0" stop-color="#e02613"/><stop offset="1" stop-color="#ae1e24" stop-opacity=".995"/></linearGradient><linearGradient id="p" gradientUnits="userSpaceOnUse" x1="-3.409" y1="-16.523" x2="-3.409" y2="-21.407" gradientTransform="matrix(1 0 0 -1 8.4 -13.9)"><stop offset="0" stop-color="#c6271e"/><stop offset=".988" stop-color="#ae1e24" stop-opacity=".995"/></linearGradient><path fill="url(#o)" stroke="url(#p)" stroke-width=".75" stroke-miterlimit="10" d="M1.432 4.623c.022 1.204 1.782 2.509 1.782 2.509h1.068V3.565c-.712 0-1.447-.513-1.447-.513s-1.426.368-1.403 1.571zm5.704-1.571s-.357.513-1.426.513v3.567h1.068s1.75-1.294 1.771-2.497c.023-1.204-1.413-1.583-1.413-1.583z"/><path fill="#FFF" d="M7.838 9.642v-.73H6.769V5.318h2.518v2.149h.356v1.445h-.356v.73z"/><path fill="#F6AB00" d="M8.929 5.676v2.148h.356v.73h-.356v.729h-.734v-.728H7.126V5.676h.733v2.148h.336V5.676h.734m.716-.715H6.411V9.27h1.07V10h2.163v-.73H10V7.109h-.355V4.961z"/></svg><view viewBox="0 450 30 30"/><svg width="30" height="30" viewBox="-10 -10 30 30" y="450"><path fill="#FDB206" d="M7.143 1.438a5.925 5.925 0 0 1-.867.681C6.904 1.271 6.904.007 5.013 0 3.094.007 3.097 1.284 3.74 2.131a6.017 6.017 0 0 1-.884-.693C.714 1.438 0 3.578 0 4.292c0 2.141 1.428 3.567 1.428 3.567v.714L2.143 10h5.715l.714-1.427v-.714S10 6.432 10 4.292c-.001-.714-.716-2.854-2.857-2.854"/><path fill="#FDD93A" d="M2.142 9.273h5.714V8.56H2.142v.713m2.863-6.821c.675 0 1.894-1.748 0-1.748-1.919.001-.674 1.748 0 1.748m2.138-.313c-.715 1.069-2.138 1.084-2.138 1.084S3.571 3.21 2.856 2.139C1.164 2.635.714 3.565.714 4.638a2.837 2.837 0 0 0 1.429 2.498v.715h5.714v-.715s1.428-.715 1.428-2.498c-.001-1.073-.451-2.003-2.142-2.499"/><linearGradient id="q" gradientUnits="userSpaceOnUse" x1="-11.941" y1="-806.102" x2="-11.941" y2="-809.937" gradientTransform="matrix(1 0 0 -1 16.94 -802.746)"><stop offset="0" stop-color="#e82208" stop-opacity=".9"/><stop offset="1" stop-color="#cc1108" stop-opacity=".9"/></linearGradient><path fill="url(#q)" d="M1.434 4.625c.022 1.205 1.786 2.51 1.786 2.51h1.07V3.567c-.714 0-1.451-.513-1.451-.513s-1.428.367-1.405 1.571m5.713-1.571s-.356.513-1.428.513v3.568H6.79s1.752-1.294 1.773-2.498c.024-1.204-1.416-1.583-1.416-1.583"/><linearGradient id="r" gradientUnits="userSpaceOnUse" x1="-11.941" y1="-805.8" x2="-11.941" y2="-809.881" gradientTransform="matrix(1 0 0 -1 16.94 -802.746)"><stop offset="0" stop-color="#e02613"/><stop offset="1" stop-color="#ae1e24" stop-opacity=".995"/></linearGradient><linearGradient id="s" gradientUnits="userSpaceOnUse" x1="-3.401" y1="-16.524" x2="-3.401" y2="-21.41" gradientTransform="matrix(1 0 0 -1 8.4 -13.9)"><stop offset="0" stop-color="#c6271e"/><stop offset=".988" stop-color="#ae1e24" stop-opacity=".995"/></linearGradient><path fill="url(#r)" stroke="url(#s)" stroke-width=".75" stroke-miterlimit="10" d="M1.434 4.625c.022 1.205 1.786 2.51 1.786 2.51h1.07V3.567c-.714 0-1.451-.513-1.451-.513s-1.428.367-1.405 1.571zm5.713-1.571s-.356.513-1.428.513v3.568H6.79s1.752-1.294 1.773-2.498c.024-1.204-1.416-1.583-1.416-1.583z"/><path fill="#FFF" d="M6.768 5.32h2.875v4.312H6.768z"/><path fill="#F6AB00" d="M9.284 5.678v.724H7.855v.694h1.429v2.178H7.126v-.745h1.401v-.704H7.126V5.677l2.158.001M10 4.962H6.41v5.026H10V4.962z"/></svg><view viewBox="0 480 30 30"/><svg width="30" height="30" viewBox="-10 -10 30 30" y="480"><path fill="#FDB206" d="M7.127 1.437c-.236.236-.55.471-.863.682C6.89 1.271 6.89.008 5.002 0 3.087.008 3.09 1.282 3.732 2.13a5.996 5.996 0 0 1-.882-.693C.712 1.437 0 3.576 0 4.29c0 2.139 1.425 3.565 1.425 3.565v.714l.713 1.427H7.84l.713-1.427v-.714S9.978 6.429 9.978 4.29c0-.714-.714-2.853-2.851-2.853"/><path fill="#FDD93A" d="M2.137 9.27H7.84v-.714H2.137v.714m2.858-6.82c.674 0 1.89-1.746 0-1.746-1.915 0-.674 1.746 0 1.746m2.132-.312c-.713 1.068-2.132 1.083-2.132 1.083S3.563 3.209 2.85 2.138C1.162 2.634.712 3.563.712 4.635a2.837 2.837 0 0 0 1.426 2.498v.714H7.84v-.714s1.424-.715 1.424-2.498c0-1.072-.45-2.001-2.137-2.497"/><linearGradient id="t" gradientUnits="userSpaceOnUse" x1="-11.952" y1="-806.1" x2="-11.952" y2="-809.934" gradientTransform="matrix(1 0 0 -1 16.94 -802.746)"><stop offset="0" stop-color="#e82208" stop-opacity=".9"/><stop offset="1" stop-color="#cc1108" stop-opacity=".9"/></linearGradient><path fill="url(#t)" d="M1.431 4.623c.022 1.204 1.782 2.509 1.782 2.509h1.068V3.565c-.712 0-1.447-.513-1.447-.513s-1.426.368-1.403 1.571m5.702-1.571s-.356.513-1.426.513v3.567h1.069s1.748-1.294 1.77-2.497c.022-1.204-1.413-1.583-1.413-1.583"/><linearGradient id="u" gradientUnits="userSpaceOnUse" x1="-11.952" y1="-805.798" x2="-11.952" y2="-809.878" gradientTransform="matrix(1 0 0 -1 16.94 -802.746)"><stop offset="0" stop-color="#e02613"/><stop offset="1" stop-color="#ae1e24" stop-opacity=".995"/></linearGradient><linearGradient id="v" gradientUnits="userSpaceOnUse" x1="-3.412" y1="-16.523" x2="-3.412" y2="-21.407" gradientTransform="matrix(1 0 0 -1 8.4 -13.9)"><stop offset="0" stop-color="#c6271e"/><stop offset=".988" stop-color="#ae1e24" stop-opacity=".995"/></linearGradient><path fill="url(#u)" stroke="url(#v)" stroke-width=".75" stroke-miterlimit="10" d="M1.431 4.623c.022 1.204 1.782 2.509 1.782 2.509h1.068V3.565c-.712 0-1.447-.513-1.447-.513s-1.426.368-1.403 1.571zm5.702-1.571s-.356.513-1.426.513v3.567h1.069s1.748-1.294 1.77-2.497c.022-1.204-1.413-1.583-1.413-1.583z"/><path fill="#FFF" d="M6.781 9.641l-.003-.362V6.777h.003V5.341h2.862v4.3z"/><path fill="#F6AB00" d="M9.286 5.698v.723H7.86v.695h1.426v2.167H7.139v-.004h-.003V7.135h.003V5.698h2.147M7.851 8.565h.681v-.72h-.681v.72M10 4.983H6.425V6.42l-.003.715v2.861h.003l.714.004H10V4.983z"/></svg><view viewBox="0 510 30 30"/><svg width="30" height="30" viewBox="-10 -10 30 30" y="510"><path fill="#FDFF5D" d="M9.3 5C9.3 2.6 7.4.7 5 .7S.7 2.6.7 5 2.6 9.3 5 9.3c2.3 0 4.3-2 4.3-4.3zM0 5c0-2.8 2.2-5 5-5s5 2.2 5 5-2.2 5-5 5-5-2.3-5-5z"/><path fill="#E21D02" d="M9.3 5C9.3 2.6 7.4.7 5 .7S.7 2.6.7 5 2.6 9.3 5 9.3c2.3 0 4.3-2 4.3-4.3z"/><defs><filter id="w" filterUnits="userSpaceOnUse" x="2.2" y="3.1" width="5.6" height="4.5"><feColorMatrix values="1 0 0 0 0 0 1 0 0 0 0 0 1 0 0 0 0 0 1 0"/></filter></defs><mask maskUnits="userSpaceOnUse" x="2.2" y="3.1" width="5.6" height="4.5" id="x"><path fill="#FFF" filter="url(#w)" d="M2.3 3h5.5v4.8H2.3z"/><path d="M2.6 3.3h1L5 6.2l1.4-2.9h1L5.5 7.4h-1z"/></mask><g mask="url(#x)"><path fill="#CF2F00" d="M2.6 3.3h1L5 6.2l1.4-2.9h1L5.5 7.4h-1z"/><path fill="none" stroke="#CF2F00" stroke-width=".5" d="M2.6 3.3h1L5 6.2l1.4-2.9h1L5.5 7.4h-1z"/></g><path fill="#FEFF5D" d="M2.6 3.3h1L5 6.2l1.4-2.9h1L5.5 7.4h-1z"/></svg></svg>